A ravishing moving story about an impossible love...
 
http://www.imdb.com/title/tt1138481/

Audio: Dutch   Subs: Dutch, English (selectable).


In de twintiger jaren ontmoet de jonge, uit Suriname afkomstige, Waldemar Nods in Nederland de oudere Rika van der Lans en ze worden verliefd. De tegenstellingen zouden bijna niet groter kunnen zijn: Waldemar zwart, Rika wit, 17 jaar leeftijdsverschil en bovendien is Rika al moeder van vier kinderen. Maar ze houden van elkaar en dan… blijkt Rika zwanger te zijn. Rika en Waldemar kiezen voor elkaar ondanks de hoge prijs die ze daarvoor moeten betalen. Ze krijgen een zoon, Waldy, hun eigen 'Sonny Boy'. Dan breekt de Tweede Wereldoorlog uit en wagen Waldemar en Rika hun leven om onderduikers te redden. Dat gaat echter niet zonder ingrijpende consequenties...
 
http://www.moviemeter.nl/film/64944

Audio: Nederlands  Subs: Engels, Nederlands (instelbaar).

General
Complete name                    : Sonny Boy-AC3-XviD-DVDRip 2011.avi
Format                           : AVI
Format/Info                      : Audio Video Interleave
File size                        : 1.46 GiB
Duration                         : 2h 14mn
Overall bit rate                 : 1 551 Kbps
Writing application              : VirtualDubMod 1.5.4.1 (build 2178/release)
Writing library                  : VirtualDubMod build 2178/release

Video
ID                               : 0
Format                           : MPEG-4 Visual
Format profile                   : Simple@L3
Format settings, BVOP            : No
Format settings, QPel            : No
Format settings, GMC             : No warppoints
Format settings, Matrix          : Default (H.263)
Codec ID                         : XVID
Codec ID/Hint                    : XviD
Duration                         : 2h 14mn
Bit rate                         : 1 093 Kbps
Width                            : 624 pixels
Height                           : 336 pixels
Display aspect ratio             : 1.857
Frame rate                       : 25.000 fps
Resolution                       : 8 bits
Colorimetry                      : 4:2:0
Scan type                        : Progressive
Bits/(Pixel*Frame)               : 0.209
Stream size                      : 1.03 GiB (70%)
Writing library                  : XviD 1.1.2 (UTC 2006-11-01)

Audio
ID                               : 1
Format                           : AC-3
Format/Info                      : Audio Coding 3
Codec ID                         : 2000
Duration                         : 2h 14mn
Bit rate mode                    : Constant
Bit rate                         : 448 Kbps
Channel(s)                       : 6 channels
Channel positions                : Front: L C R, Surround: L R, LFE
Sampling rate                    : 48.0 KHz
Stream size                      : 432 MiB (29%)
Alignment                        : Split accross interleaves
Interleave, duration             : 40 ms (1.00 video frame)
Interleave, preload duration     : 500 ms

Thanks to Noprobs Team.

Enjoy..

TBS.